<svg width="80" height="80" viewBox="0 0 80 80" fill="none" xmlns="http://www.w3.org/2000/svg">
<path d="M77.5644 45.2333C69.16 32.3644 70.0533 19.1733 66.0022 12.9711C61.9511 6.76888 49.8778 -3.92446 21.3511 14.7089C-7.17556 33.3422 0.0799995 53.5978 4.53778 60.4178C25.4 92.3555 92.4511 68.0244 77.5644 45.2333Z" fill="#EFEFEF"/>
<path d="M52.7778 59.4444V60.5555C52.7778 63.0111 50.7889 65 48.3333 65H21.6667C19.2111 65 17.2222 63.0111 17.2222 60.5555V25C17.2222 22.5444 19.2111 20.5555 21.6667 20.5555H22.7778H52.7778V59.4444Z" fill="#F3F3F1"/>
<path d="M22.2222 59.6378V20.5555H21.6667C19.2111 20.5555 17.2222 22.5444 17.2222 25V60.5555C17.2222 63.0111 19.2111 65 21.6667 65H26.6667C24.2111 65 22.2222 62.6 22.2222 59.6378Z" fill="#D5DBE1"/>
<path d="M62.7778 19.4444V49.4444C62.7778 51.9 60.7889 53.8889 58.3333 53.8889H32.7778C30.3222 53.8889 28.3333 51.9 28.3333 49.4444V19.4444C28.3333 16.9889 30.3222 15 32.7778 15H58.3333C60.7889 15 62.7778 16.9889 62.7778 19.4444Z" fill="#2FDF84"/>
<path d="M33.3333 49.4444V19.4444C33.3333 16.9889 35.3222 15 37.7778 15H32.7778C30.3222 15 28.3333 16.9889 28.3333 19.4444V49.4444C28.3333 51.9 30.3222 53.8889 32.7778 53.8889H37.7778C35.3222 53.8889 33.3333 51.9 33.3333 49.4444Z" fill="#00B871"/>
<path d="M67.7778 71.6667C65.94 71.6667 64.4444 70.1711 64.4444 68.3333C64.4444 66.4956 65.94 65 67.7778 65C69.6156 65 71.1111 66.4956 71.1111 68.3333C71.1111 70.1711 69.6156 71.6667 67.7778 71.6667ZM67.7778 67.2222C67.1667 67.2222 66.6667 67.72 66.6667 68.3333C66.6667 68.9467 67.1667 69.4444 67.7778 69.4444C68.3889 69.4444 68.8889 68.9467 68.8889 68.3333C68.8889 67.72 68.3889 67.2222 67.7778 67.2222Z" fill="#A4AFC1"/>
<path d="M58.3333 55.5555H32.7778C29.4067 55.5555 26.6667 52.8155 26.6667 49.4444V19.4444C26.6667 16.0733 29.4067 13.3333 32.7778 13.3333H58.3333C61.7044 13.3333 64.4444 16.0733 64.4444 19.4444V49.4444C64.4444 52.8155 61.7044 55.5555 58.3333 55.5555ZM32.7778 16.6666C31.2467 16.6666 30 17.9133 30 19.4444V49.4444C30 50.9755 31.2467 52.2221 32.7778 52.2221H58.3333C59.8644 52.2221 61.1111 50.9755 61.1111 49.4444V19.4444C61.1111 17.9133 59.8644 16.6666 58.3333 16.6666H32.7778Z" fill="black"/>
<path d="M48.3333 66.6666H21.6667C18.2956 66.6666 15.5556 63.9266 15.5556 60.5555V24.9999C15.5556 21.6288 18.2956 18.8888 21.6667 18.8888H22.7778V22.2221H21.6667C20.1356 22.2221 18.8889 23.4688 18.8889 24.9999V60.5555C18.8889 62.0866 20.1356 63.3332 21.6667 63.3332H48.3333C49.8644 63.3332 51.1111 62.0866 51.1111 60.5555V59.4444H54.4444V60.5555C54.4444 63.9266 51.7044 66.6666 48.3333 66.6666Z" fill="black"/>
<path d="M37.2222 28.8888H53.8889V32.2221H37.2222V28.8888Z" fill="black"/>
<path d="M37.2222 35.5554H53.8889V38.8888H37.2222V35.5554Z" fill="black"/>
<path d="M37.2222 42.2222H53.8889V45.5555H37.2222V42.2222Z" fill="black"/>
</svg>
