<svg width="80" height="80" viewBox="0 0 80 80" fill="none" xmlns="http://www.w3.org/2000/svg">
<path d="M29.8022 77.7755C43.7978 71.4222 56.7022 74.3111 63.4467 71.2511C70.1911 68.1889 82.5956 57.8822 68.5133 26.8555C54.4311 -4.17113 33.3111 -0.077793 25.8911 3.28887C-8.84667 19.0555 5.01333 89.0266 29.8022 77.7755Z" fill="#EFEFEF"/>
<path d="M35 58.3334H19.4444C17 58.3334 15 56.3334 15 53.889V26.1112C15 23.6667 17 21.6667 19.4444 21.6667H23.8889H40.5555H45C47.4444 21.6667 49.4444 23.6667 49.4444 26.1112V30.5556V58.3334H35Z" fill="#F3F3F1"/>
<path d="M20 53.889V26.1112C20 23.6667 22 21.6667 24.4444 21.6667H23.8889H19.4444C17 21.6667 15 23.6667 15 26.1112V53.889C15 56.3334 17 58.3334 19.4444 58.3334H24.4444C22 58.3334 20 56.3334 20 53.889Z" fill="#D5DBE1"/>
<path d="M40.5556 19.4444V23.8889C40.5556 25.1156 39.56 26.1111 38.3333 26.1111H26.1111C24.8844 26.1111 23.8889 25.1156 23.8889 23.8889V19.4444H27.7778C27.7778 17 29.7778 15 32.2222 15C34.6667 15 36.6667 17 36.6667 19.4444H40.5556Z" fill="#2FDF84"/>
<path d="M27.4533 22.4533H28.8978C29.82 22.4533 30.7222 21.9267 31.0133 21.0533C31.6044 19.2889 32.22 18.0089 35.2311 18.0089C35.6444 18.0089 36.0556 18.0844 36.4622 18.1911C35.9156 16.3556 34.2289 15 32.2222 15C29.7778 15 27.7778 17 27.7778 19.4444H23.8889V23.8889C23.8889 25.1156 24.8844 26.1111 26.1111 26.1111H27.4533V22.4533Z" fill="#00B871"/>
<path d="M62.7778 65.0001H43.8889C42.6622 65.0001 41.6667 64.0045 41.6667 62.7778V39.4445C41.6667 38.2178 42.6622 37.2223 43.8889 37.2223H62.7778C64.0044 37.2223 65 38.2178 65 39.4445V62.7778C65 64.0045 64.0044 65.0001 62.7778 65.0001Z" fill="#2FDF84"/>
<path d="M46.6667 62.7778V39.4445C46.6667 38.2178 47.6622 37.2223 48.8889 37.2223H43.8889C42.6622 37.2223 41.6667 38.2178 41.6667 39.4445V62.7778C41.6667 64.0045 42.6622 65.0001 43.8889 65.0001H48.8889C47.6622 65.0001 46.6667 64.0045 46.6667 62.7778Z" fill="#00B871"/>
<path d="M57.7579 10.2584L59.3292 8.68707L62.4719 11.8298L60.9006 13.4011L57.7579 10.2584Z" fill="#A4AFC1"/>
<path d="M66.7919 19.2939L68.3633 17.7226L71.506 20.8653L69.9346 22.4366L66.7919 19.2939Z" fill="#A4AFC1"/>
<path d="M57.3635 20.8646L60.5062 17.7219L62.0775 19.2933L58.9348 22.436L57.3635 20.8646Z" fill="#A4AFC1"/>
<path d="M66.399 11.8307L69.5417 8.68799L71.1131 10.2593L67.9704 13.402L66.399 11.8307Z" fill="#A4AFC1"/>
<path d="M35 60H19.4444C16.0733 60 13.3333 57.26 13.3333 53.8889V26.1111C13.3333 22.74 16.0733 20 19.4444 20H23.8889V23.3333H19.4444C17.9133 23.3333 16.6667 24.58 16.6667 26.1111V53.8889C16.6667 55.42 17.9133 56.6667 19.4444 56.6667H35V60Z" fill="black"/>
<path d="M51.1111 30.5556H47.7778V26.1111C47.7778 24.58 46.5311 23.3333 45 23.3333H40.5556V20H45C48.3711 20 51.1111 22.74 51.1111 26.1111V30.5556Z" fill="black"/>
<path d="M38.3333 27.7777H26.1111C23.9667 27.7777 22.2222 26.0332 22.2222 23.8888V19.4444C22.2222 18.5244 22.9689 17.7777 23.8889 17.7777H26.3422C27.0689 15.2155 29.4311 13.3333 32.2222 13.3333C35.0133 13.3333 37.3755 15.2155 38.1022 17.7777H40.5555C41.4755 17.7777 42.2222 18.5244 42.2222 19.4444V23.8888C42.2222 26.0332 40.4778 27.7777 38.3333 27.7777ZM25.5555 21.111V23.8888C25.5555 24.1955 25.8044 24.4444 26.1111 24.4444H38.3333C38.64 24.4444 38.8889 24.1955 38.8889 23.8888V21.111H36.6667C35.7467 21.111 35 20.3644 35 19.4444C35 17.9133 33.7533 16.6666 32.2222 16.6666C30.6911 16.6666 29.4444 17.9133 29.4444 19.4444C29.4444 20.3644 28.6978 21.111 27.7778 21.111H25.5555Z" fill="black"/>
<path d="M62.7778 66.6665H43.8889C41.7444 66.6665 40 64.9221 40 62.7776V39.4443C40 37.2999 41.7444 35.5554 43.8889 35.5554H62.7778C64.9222 35.5554 66.6667 37.2999 66.6667 39.4443V62.7776C66.6667 64.9221 64.9222 66.6665 62.7778 66.6665ZM43.8889 38.8888C43.5822 38.8888 43.3333 39.1376 43.3333 39.4443V62.7776C43.3333 63.0843 43.5822 63.3332 43.8889 63.3332H62.7778C63.0844 63.3332 63.3333 63.0843 63.3333 62.7776V39.4443C63.3333 39.1376 63.0844 38.8888 62.7778 38.8888H43.8889Z" fill="black"/>
<path d="M48.0556 47.7777H58.0556V51.111H48.0556V47.7777Z" fill="black"/>
<path d="M48.0556 54.4443H58.0556V57.7777H48.0556V54.4443Z" fill="black"/>
</svg>
