<svg width="80" height="80" viewBox="0 0 80 80" fill="none" xmlns="http://www.w3.org/2000/svg">
<path d="M18.0311 12.3644C14.02 27.2022 3.57778 35.3133 1.64445 42.4644C-0.288884 49.6155 -0.237775 65.7422 32.6556 74.6355C65.5489 83.5289 75.8378 64.6333 77.9622 56.7666C87.92 19.94 25.1356 -13.9156 18.0311 12.3644Z" fill="#EFEFEF"/>
<path d="M40 65C53.8071 65 65 53.8071 65 40C65 26.1929 53.8071 15 40 15C26.1929 15 15 26.1929 15 40C15 53.8071 26.1929 65 40 65Z" fill="#F3F3F1"/>
<path d="M20 40C20 27.0378 29.8667 16.38 42.5 15.1267C41.6778 15.0444 40.8444 15 40 15C26.1933 15 15 26.1933 15 40C15 53.8067 26.1933 65 40 65C40.8444 65 41.6778 64.9556 42.5 64.8733C29.8667 63.62 20 52.9622 20 40Z" fill="#D5DBE1"/>
<path d="M40 56.111C48.8979 56.111 56.1111 48.8978 56.1111 39.9999C56.1111 31.102 48.8979 23.8888 40 23.8888C31.1021 23.8888 23.8889 31.102 23.8889 39.9999C23.8889 48.8978 31.1021 56.111 40 56.111Z" fill="#2FDF84"/>
<path d="M28.8889 39.9999C28.8889 31.9555 34.7933 25.3066 42.5 24.1021C41.6822 23.9755 40.8533 23.8888 40 23.8888C31.1022 23.8888 23.8889 31.1021 23.8889 39.9999C23.8889 48.8977 31.1022 56.111 40 56.111C40.8533 56.111 41.6822 56.0243 42.5 55.8977C34.7933 54.6932 28.8889 48.0443 28.8889 39.9999Z" fill="#00B871"/>
<path d="M40 47.2223C43.9887 47.2223 47.2222 43.9888 47.2222 40C47.2222 36.0113 43.9887 32.7778 40 32.7778C36.0113 32.7778 32.7778 36.0113 32.7778 40C32.7778 43.9888 36.0113 47.2223 40 47.2223Z" fill="#F3F3F1"/>
<path d="M9.76614 11.3634L11.3375 9.79205L14.4802 12.9348L12.9088 14.5061L9.76614 11.3634Z" fill="#A4AFC1"/>
<path d="M9.37398 21.9696L12.5167 18.8269L14.088 20.3983L10.9453 23.541L9.37398 21.9696Z" fill="#A4AFC1"/>
<path d="M18.4073 12.9357L21.55 9.79297L23.1214 11.3643L19.9787 14.507L18.4073 12.9357Z" fill="#A4AFC1"/>
<path d="M40 66.6666C25.2955 66.6666 13.3333 54.7044 13.3333 39.9999C13.3333 25.2955 25.2955 13.3333 40 13.3333C54.7044 13.3333 66.6667 25.2955 66.6667 39.9999C66.6667 54.7044 54.7044 66.6666 40 66.6666ZM40 16.6666C27.1333 16.6666 16.6667 27.1333 16.6667 39.9999C16.6667 52.8666 27.1333 63.3332 40 63.3332C52.8667 63.3332 63.3333 52.8666 63.3333 39.9999C63.3333 27.1333 52.8667 16.6666 40 16.6666Z" fill="black"/>
<path d="M40 57.7777C30.1978 57.7777 22.2222 49.8022 22.2222 40C22.2222 30.1977 30.1978 22.2222 40 22.2222C49.8022 22.2222 57.7778 30.1977 57.7778 40C57.7778 44.7488 55.9289 49.2133 52.5711 52.5711L50.2133 50.2133C52.9422 47.4866 54.4444 43.8577 54.4444 40C54.4444 32.0355 47.9644 25.5555 40 25.5555C32.0355 25.5555 25.5555 32.0355 25.5555 40C25.5555 47.9644 32.0355 54.4444 40 54.4444C42.6378 54.4444 45.2155 53.7288 47.4578 52.3733L49.1822 55.2244C46.42 56.8955 43.2444 57.7777 40 57.7777Z" fill="black"/>
<path d="M40 48.8887C35.0978 48.8887 31.1111 44.9021 31.1111 39.9999C31.1111 35.0976 35.0978 31.111 40 31.111C44.9022 31.111 48.8889 35.0976 48.8889 39.9999C48.8889 44.9021 44.9022 48.8887 40 48.8887ZM40 34.4443C36.9378 34.4443 34.4444 36.9376 34.4444 39.9999C34.4444 43.0621 36.9378 45.5554 40 45.5554C43.0622 45.5554 45.5556 43.0621 45.5556 39.9999C45.5556 36.9376 43.0622 34.4443 40 34.4443Z" fill="black"/>
</svg>
