<svg width="80" height="80" viewBox="0 0 80 80" fill="none" xmlns="http://www.w3.org/2000/svg">
<path d="M77.6178 45.7578C69.4111 32.7623 70.5089 19.5845 66.5533 13.3223C62.5978 7.06003 50.6911 -3.81997 21.88 14.3734C-6.93111 32.5667 0.0133334 52.9289 4.36444 59.8178C24.7333 92.0734 92.1511 68.7756 77.6178 45.7578Z" fill="#EFEFEF"/>
<path d="M60.5556 65H19.4444C16.9889 65 15 63.0111 15 60.5556V19.4444C15 16.9889 16.9889 15 19.4444 15H60.5556C63.0111 15 65 16.9889 65 19.4444V60.5556C65 63.0111 63.0111 65 60.5556 65Z" fill="#2FDF84"/>
<path d="M20 60.5556V19.4444C20 16.9889 21.9889 15 24.4445 15H19.4444C16.9889 15 15 16.9889 15 19.4444V60.5556C15 63.0111 16.9889 65 19.4444 65H24.4445C21.9889 65 20 63.0111 20 60.5556Z" fill="#00B871"/>
<path d="M13.3333 14.3711C11.4956 14.3711 10 12.8756 10 11.0378C10 9.20002 11.4956 7.70447 13.3333 7.70447C15.1711 7.70447 16.6667 9.20002 16.6667 11.0378C16.6667 12.8756 15.1711 14.3711 13.3333 14.3711ZM13.3333 9.92669C12.72 9.92669 12.2222 10.4245 12.2222 11.0378C12.2222 11.6511 12.72 12.1489 13.3333 12.1489C13.9467 12.1489 14.4444 11.6511 14.4444 11.0378C14.4444 10.4245 13.9467 9.92669 13.3333 9.92669Z" fill="#A4AFC1"/>
<path d="M60.5555 66.6666H19.4444C16.0733 66.6666 13.3333 63.9266 13.3333 60.5555V19.4444C13.3333 16.0733 16.0733 13.3333 19.4444 13.3333H60.5555C63.9267 13.3333 66.6667 16.0733 66.6667 19.4444V60.5555C66.6667 63.9266 63.9267 66.6666 60.5555 66.6666ZM19.4444 16.6666C17.9133 16.6666 16.6666 17.9133 16.6666 19.4444V60.5555C16.6666 62.0866 17.9133 63.3333 19.4444 63.3333H60.5555C62.0867 63.3333 63.3333 62.0866 63.3333 60.5555V19.4444C63.3333 17.9133 62.0867 16.6666 60.5555 16.6666H19.4444Z" fill="black"/>
<path d="M38.3333 26.111H41.6666V53.8888H38.3333V26.111Z" fill="black"/>
<path d="M47.7111 36.1777L40 28.4688L32.2889 36.1799L29.9333 33.8222L38.8222 24.9333C39.4733 24.2822 40.5289 24.2822 41.18 24.9333L50.0689 33.8222L47.7111 36.1777Z" fill="black"/>
<path d="M4.44443 63.3333H75.5555V66.6666H4.44443V63.3333Z" fill="black"/>
</svg>
