<svg width="73" height="19" viewBox="0 0 73 19" fill="none" xmlns="http://www.w3.org/2000/svg">
<path d="M4.27344 18H0.3125V0H4.27344V18ZM12.3716 18.2344C10.4262 18.2344 8.85203 17.6562 7.64891 16.5C6.44578 15.3359 5.84422 13.8242 5.84422 11.9648V11.6367C5.84422 10.3398 6.0825 9.19531 6.55906 8.20312C7.04344 7.21094 7.74656 6.44531 8.66844 5.90625C9.59031 5.35938 10.6841 5.08594 11.9497 5.08594C13.7309 5.08594 15.1372 5.64062 16.1684 6.75C17.1997 7.85156 17.7153 9.39062 17.7153 11.3672V12.9023H9.86375C10.0044 13.6133 10.313 14.1719 10.7895 14.5781C11.2661 14.9844 11.8833 15.1875 12.6411 15.1875C13.8911 15.1875 14.8677 14.75 15.5708 13.875L17.3755 16.0078C16.8833 16.6875 16.1841 17.2305 15.2778 17.6367C14.3794 18.0352 13.4106 18.2344 12.3716 18.2344ZM11.9262 8.13281C10.77 8.13281 10.0825 8.89844 9.86375 10.4297H13.8481V10.125C13.8637 9.49219 13.7036 9.00391 13.3677 8.66016C13.0317 8.30859 12.5512 8.13281 11.9262 8.13281ZM25.4736 14.4375C25.4736 14.1016 25.2978 13.832 24.9463 13.6289C24.5947 13.4258 23.9267 13.2148 22.9423 12.9961C21.958 12.7773 21.1455 12.4922 20.5048 12.1406C19.8642 11.7812 19.3759 11.3477 19.04 10.8398C18.7041 10.332 18.5361 9.75 18.5361 9.09375C18.5361 7.92969 19.0166 6.97266 19.9775 6.22266C20.9384 5.46484 22.1963 5.08594 23.7509 5.08594C25.4228 5.08594 26.7666 5.46484 27.7822 6.22266C28.7978 6.98047 29.3056 7.97656 29.3056 9.21094H25.3447C25.3447 8.19531 24.8095 7.6875 23.7392 7.6875C23.3252 7.6875 22.9775 7.80469 22.6963 8.03906C22.415 8.26562 22.2744 8.55078 22.2744 8.89453C22.2744 9.24609 22.4463 9.53125 22.79 9.75C23.1338 9.96875 23.6806 10.1484 24.4306 10.2891C25.1884 10.4297 25.8525 10.5977 26.4228 10.793C28.3291 11.4492 29.2822 12.625 29.2822 14.3203C29.2822 15.4766 28.7666 16.418 27.7353 17.1445C26.7119 17.8711 25.3838 18.2344 23.7509 18.2344C22.665 18.2344 21.6963 18.0391 20.8447 17.6484C19.9931 17.2578 19.3291 16.7266 18.8525 16.0547C18.3759 15.3828 18.1377 14.6758 18.1377 13.9336H21.8291C21.8447 14.5195 22.04 14.9492 22.415 15.2227C22.79 15.4883 23.2705 15.6211 23.8564 15.6211C24.3955 15.6211 24.7978 15.5117 25.0634 15.293C25.3369 15.0742 25.4736 14.7891 25.4736 14.4375ZM37.2983 14.4375C37.2983 14.1016 37.1225 13.832 36.7709 13.6289C36.4194 13.4258 35.7514 13.2148 34.767 12.9961C33.7827 12.7773 32.9702 12.4922 32.3295 12.1406C31.6889 11.7812 31.2006 11.3477 30.8647 10.8398C30.5287 10.332 30.3608 9.75 30.3608 9.09375C30.3608 7.92969 30.8412 6.97266 31.8022 6.22266C32.7631 5.46484 34.0209 5.08594 35.5756 5.08594C37.2475 5.08594 38.5912 5.46484 39.6069 6.22266C40.6225 6.98047 41.1303 7.97656 41.1303 9.21094H37.1694C37.1694 8.19531 36.6342 7.6875 35.5639 7.6875C35.1498 7.6875 34.8022 7.80469 34.5209 8.03906C34.2397 8.26562 34.0991 8.55078 34.0991 8.89453C34.0991 9.24609 34.2709 9.53125 34.6147 9.75C34.9584 9.96875 35.5053 10.1484 36.2553 10.2891C37.0131 10.4297 37.6772 10.5977 38.2475 10.793C40.1537 11.4492 41.1069 12.625 41.1069 14.3203C41.1069 15.4766 40.5912 16.418 39.56 17.1445C38.5366 17.8711 37.2084 18.2344 35.5756 18.2344C34.4897 18.2344 33.5209 18.0391 32.6694 17.6484C31.8178 17.2578 31.1537 16.7266 30.6772 16.0547C30.2006 15.3828 29.9623 14.6758 29.9623 13.9336H33.6537C33.6694 14.5195 33.8647 14.9492 34.2397 15.2227C34.6147 15.4883 35.0952 15.6211 35.6811 15.6211C36.2202 15.6211 36.6225 15.5117 36.8881 15.293C37.1616 15.0742 37.2983 14.7891 37.2983 14.4375ZM46.6503 18H42.6894V5.32031H46.6503V18ZM42.455 2.05078C42.455 1.48828 42.6581 1.02734 43.0644 0.667969C43.4706 0.308594 43.998 0.128906 44.6464 0.128906C45.2948 0.128906 45.8222 0.308594 46.2284 0.667969C46.6347 1.02734 46.8378 1.48828 46.8378 2.05078C46.8378 2.61328 46.6347 3.07422 46.2284 3.43359C45.8222 3.79297 45.2948 3.97266 44.6464 3.97266C43.998 3.97266 43.4706 3.79297 43.0644 3.43359C42.6581 3.07422 42.455 2.61328 42.455 2.05078ZM52.2406 5.32031L52.3695 6.80859C53.2445 5.66016 54.4516 5.08594 55.9906 5.08594C57.3109 5.08594 58.2953 5.48047 58.9437 6.26953C59.6 7.05859 59.9398 8.24609 59.9633 9.83203V18H56.0023V9.99609C56.0023 9.35547 55.8734 8.88672 55.6156 8.58984C55.3578 8.28516 54.8891 8.13281 54.2094 8.13281C53.4359 8.13281 52.8617 8.4375 52.4867 9.04688V18H48.5375V5.32031H52.2406ZM68.3192 14.4375C68.3192 14.1016 68.1434 13.832 67.7919 13.6289C67.4403 13.4258 66.7723 13.2148 65.788 12.9961C64.8036 12.7773 63.9911 12.4922 63.3505 12.1406C62.7098 11.7812 62.2216 11.3477 61.8856 10.8398C61.5497 10.332 61.3817 9.75 61.3817 9.09375C61.3817 7.92969 61.8622 6.97266 62.8231 6.22266C63.7841 5.46484 65.0419 5.08594 66.5966 5.08594C68.2684 5.08594 69.6122 5.46484 70.6278 6.22266C71.6434 6.98047 72.1512 7.97656 72.1512 9.21094H68.1903C68.1903 8.19531 67.6552 7.6875 66.5848 7.6875C66.1708 7.6875 65.8231 7.80469 65.5419 8.03906C65.2606 8.26562 65.12 8.55078 65.12 8.89453C65.12 9.24609 65.2919 9.53125 65.6356 9.75C65.9794 9.96875 66.5262 10.1484 67.2762 10.2891C68.0341 10.4297 68.6981 10.5977 69.2684 10.793C71.1747 11.4492 72.1278 12.625 72.1278 14.3203C72.1278 15.4766 71.6122 16.418 70.5809 17.1445C69.5575 17.8711 68.2294 18.2344 66.5966 18.2344C65.5106 18.2344 64.5419 18.0391 63.6903 17.6484C62.8387 17.2578 62.1747 16.7266 61.6981 16.0547C61.2216 15.3828 60.9833 14.6758 60.9833 13.9336H64.6747C64.6903 14.5195 64.8856 14.9492 65.2606 15.2227C65.6356 15.4883 66.1161 15.6211 66.702 15.6211C67.2411 15.6211 67.6434 15.5117 67.9091 15.293C68.1825 15.0742 68.3192 14.7891 68.3192 14.4375Z" fill="white"/>
</svg>
